<svg xmlns="http://www.w3.org/2000/svg" viewBox="0 0 80.8 97.2"><defs><style>.cls-1{fill:#231f20;}</style></defs><g id="Layer_2" data-name="Layer 2"><g id="Layer_1-2" data-name="Layer 1"><path class="cls-1" d="M80.8,40.8c0,2.27-.1,5.23-.3,8.9a79.74,79.74,0,0,1-1.6,11.8,64,64,0,0,1-4.1,12.7,39.07,39.07,0,0,1-7.7,11.5A36.87,36.87,0,0,1,54.6,94Q47,97.2,36.2,97.2a28.72,28.72,0,0,1-14.7-3.9A39.66,39.66,0,0,1,10,83.2,47.31,47.31,0,0,1,2.6,69.4,46.26,46.26,0,0,1,0,54.4,82,82,0,0,1,2,37.6,54.31,54.31,0,0,1,9.3,19.8,44.17,44.17,0,0,1,23.9,5.7Q33.2,0,47.8,0A30.19,30.19,0,0,1,59.7,2.5a30.63,30.63,0,0,1,10.6,7.6,38.86,38.86,0,0,1,7.6,12.8A50.71,50.71,0,0,1,80.8,40.8ZM54,58.4q0-2.4-.1-6.7c-.07-2.87-.2-5.93-.4-9.2a92.34,92.34,0,0,0-1.2-10.1,53.72,53.72,0,0,0-2.4-9.3,22.18,22.18,0,0,0-3.8-6.8,7.19,7.19,0,0,0-5.7-2.7,9.86,9.86,0,0,0-7.3,2.7,16.52,16.52,0,0,0-4,6.8,40.16,40.16,0,0,0-1.7,8.7Q27,36.4,27,40.2v7.2q0,3.2.3,9.6A74.82,74.82,0,0,0,29,69.7a33.63,33.63,0,0,0,4.5,11.1,10,10,0,0,0,8.9,4.8,7.82,7.82,0,0,0,6.7-3.1,21,21,0,0,0,3.4-7.4,43.79,43.79,0,0,0,1.3-9Q54,61.41,54,58.4Z"/></g></g></svg>