<svg xmlns="http://www.w3.org/2000/svg" viewBox="0 0 88.4 99.2"><defs><style>.cls-1{fill:#231f20;}</style></defs><g id="Layer_2" data-name="Layer 2"><g id="Layer_1-2" data-name="Layer 1"><path class="cls-1" d="M88.4,17.6a3.5,3.5,0,0,1-1,2.6q-7.4,8.4-13,16.2t-11.6,15q3,5,6.3,10t6.3,9.1a77.24,77.24,0,0,0,5.5,6.8q2.5,2.7,3.7,3.1A9.94,9.94,0,0,1,87.4,87q0,4-4.4,7.5T68,99.2h-.2c-.93,0-2.27-.7-4-2.1a71.7,71.7,0,0,1-6.1-5.7q-3.5-3.6-7.4-8.2t-7.7-9.6A140.4,140.4,0,0,1,26,87.7Q16.81,94.41,9.4,99l-.6.2a5.66,5.66,0,0,1-2.5-.8,24.94,24.94,0,0,1-2.9-1.8A13.06,13.06,0,0,1,1,94.4a3.48,3.48,0,0,1-1-1.8q0-.6,1.2-1.5a14.43,14.43,0,0,1,2-1.3q5.4-3,13.3-10.5T34,61.4Q29,54.2,24.4,47T16.2,33.3a103.26,103.26,0,0,1-5.7-11.8A24.64,24.64,0,0,1,8.4,13a8.18,8.18,0,0,1,1.9-5.2A17.46,17.46,0,0,1,15,3.7,26.86,26.86,0,0,1,21.1,1a21.61,21.61,0,0,1,6.3-1,16.84,16.84,0,0,1,6.5,1.2A7.45,7.45,0,0,1,38,5q.2.4.6,1.2c.27.53.6,1.13,1,1.8q2,4,6,11.4t8.8,16.2q5.2-7.39,9.7-15.3A161.54,161.54,0,0,0,72.2,4a2.35,2.35,0,0,1,2.4-1.4,8,8,0,0,1,3.6,1.5,24.22,24.22,0,0,1,4.6,3.8,33.54,33.54,0,0,1,3.9,4.9A9,9,0,0,1,88.4,17.6Z"/></g></g></svg>